<?xml version="1.0" standalone="no"?>
<!DOCTYPE svg PUBLIC "-//W3C//DTD SVG 20010904//EN"
 "http://www.w3.org/TR/2001/REC-SVG-20010904/DTD/svg10.dtd">
<svg version="1.0" xmlns="http://www.w3.org/2000/svg"
 width="1084.000000pt" height="1084.000000pt" viewBox="0 0 1084.000000 1084.000000"
 preserveAspectRatio="xMidYMid meet">
<metadata>
Created by potrace 1.16, written by Peter Selinger 2001-2019
</metadata>
<g transform="translate(0.000000,1084.000000) scale(0.100000,-0.100000)"
fill="#000000" stroke="none">
<path d="M8360 9950 c-74 -10 -205 -30 -290 -45 -85 -15 -198 -31 -250 -37
-114 -12 -145 -24 -145 -58 0 -58 67 -55 460 24 209 42 355 61 355 47 0 -8
-202 -197 -298 -279 -59 -50 -77 -71 -77 -91 0 -16 6 -27 17 -29 41 -8 467
360 480 415 3 12 0 32 -6 45 -15 30 -66 32 -246 8z"/>
<path d="M6800 9734 c-362 -31 -740 -74 -1140 -130 -179 -25 -390 -54 -469
-65 -242 -32 -593 -67 -851 -85 -260 -17 -279 -19 -264 -34 5 -5 176 7 417 31
439 42 636 65 1127 134 504 71 855 110 1294 145 137 10 251 22 254 25 9 9 -84
4 -368 -21z"/>
<path d="M7715 9689 c-88 -10 -338 -46 -555 -78 -217 -33 -543 -81 -724 -106
-287 -39 -380 -55 -324 -55 29 0 747 101 1098 155 195 30 440 63 543 74 104
11 191 22 195 25 9 10 -64 5 -233 -15z"/>
<path d="M3356 9393 c-131 -138 -262 -308 -313 -408 -35 -67 -36 -125 -4 -159
69 -73 203 -58 511 59 135 51 162 67 143 86 -9 9 -45 2 -150 -30 -169 -51
-273 -71 -364 -71 -85 0 -91 10 -55 83 45 91 270 370 306 380 28 7 63 82 50
107 -20 38 -55 24 -124 -47z"/>
<path d="M5604 8681 c-61 -45 -291 -283 -299 -309 -9 -32 19 -74 48 -70 12 2
27 14 34 28 13 27 260 277 266 270 9 -12 59 -474 67 -620 5 -91 16 -266 25
-390 20 -298 34 -709 29 -896 -3 -119 -1 -154 10 -163 10 -9 16 -8 26 4 17 20
8 603 -14 945 -27 404 -35 597 -40 860 -4 266 -12 322 -48 353 -29 25 -59 21
-104 -12z"/>
<path d="M5544 8169 c-4 -7 1 -18 11 -25 22 -16 37 -131 60 -439 16 -222 63
-757 90 -1025 26 -251 54 -653 47 -664 -3 -6 -41 -58 -83 -116 -94 -128 -280
-421 -322 -507 -17 -35 -34 -63 -38 -63 -11 0 -20 219 -25 605 -6 476 -12 520
-77 513 -42 -4 -56 -30 -35 -65 9 -16 19 -59 23 -98 4 -38 13 -113 21 -165 8
-52 19 -214 25 -360 6 -146 14 -320 17 -388 7 -121 7 -123 -16 -138 -21 -14
-23 -21 -20 -82 3 -61 5 -67 26 -70 13 -2 25 -9 27 -15 2 -7 11 -115 20 -242
8 -126 22 -313 30 -415 8 -102 24 -311 35 -465 12 -154 25 -323 30 -375 5 -52
13 -133 16 -178 5 -58 11 -85 21 -89 29 -11 31 14 18 157 -22 221 -34 365 -50
595 -22 324 -43 602 -60 806 l-15 185 42 45 c55 57 148 194 228 334 35 61 88
153 119 205 l56 95 3 -52 c2 -30 8 -53 14 -53 7 0 9 21 5 62 -6 64 4 98 27 98
7 0 37 39 66 86 71 115 139 199 307 379 144 154 386 387 413 397 8 3 71 45
140 93 122 86 398 231 412 217 3 -4 20 -52 37 -107 57 -188 60 -499 9 -978
-18 -174 -28 -224 -78 -403 -31 -112 -63 -210 -72 -217 -8 -6 -27 -41 -41 -77
-45 -112 -182 -405 -205 -438 -70 -97 -103 -223 -163 -617 -15 -101 -11 -530
6 -629 9 -48 13 -90 11 -94 -13 -21 98 -486 123 -515 5 -7 21 -42 35 -79 34
-91 132 -281 155 -302 17 -15 16 -6 -10 75 -89 283 -150 714 -165 1164 -10
290 24 619 65 633 15 5 14 0 -13 -97 -25 -88 -39 -335 -31 -556 12 -312 20
-353 27 -135 3 102 13 224 22 272 25 135 161 698 231 958 103 378 151 598 137
621 -17 26 -15 43 6 61 32 28 59 31 83 7 19 -19 21 -29 16 -78 -9 -84 -40
-189 -116 -405 -85 -237 -109 -325 -211 -754 -106 -445 -112 -475 -117 -692
-6 -207 6 -286 52 -346 39 -50 29 -94 -21 -94 -29 0 -41 16 -59 81 l-15 54 6
-70 c12 -158 63 -416 120 -612 19 -68 32 -128 29 -134 -8 -11 13 -69 25 -69 4
0 35 -48 68 -107 72 -129 262 -391 294 -407 13 -6 37 -32 53 -57 46 -71 143
-187 170 -205 14 -9 65 -64 114 -124 50 -59 105 -120 123 -135 18 -15 74 -67
124 -116 50 -49 95 -89 101 -89 6 0 37 -20 69 -45 62 -48 97 -56 114 -26 29
54 906 395 1122 436 43 8 88 20 100 26 13 7 30 15 38 19 22 10 24 53 3 77 -14
16 -46 26 -140 42 -95 16 -152 33 -250 74 -71 30 -173 71 -228 92 -155 59
-441 201 -485 240 -14 12 -43 29 -150 86 -47 25 -119 95 -474 456 -119 123
-224 223 -232 223 -8 0 -14 7 -14 16 0 20 -30 72 -83 141 l-39 53 17 112 c9
61 37 186 61 276 24 91 44 174 44 184 0 24 56 167 114 291 34 73 43 103 36
116 -7 14 3 33 43 87 29 38 65 101 81 139 16 39 68 158 116 265 53 118 98 236
114 300 15 58 32 115 37 128 5 13 9 40 9 61 0 31 4 40 21 44 16 4 20 11 16 27
-5 20 16 82 48 141 8 14 12 28 10 31 -3 3 6 38 20 79 45 128 113 419 125 532
5 45 14 108 20 141 8 42 8 66 1 85 -8 18 -8 56 0 131 19 174 10 271 -43 476
-16 66 -32 135 -35 154 -2 19 -18 77 -35 129 -44 135 -75 170 -283 319 -25 17
-52 32 -60 32 -9 0 -34 12 -57 26 -34 22 -56 27 -139 31 -61 4 -108 2 -126 -5
-15 -6 -75 -16 -132 -22 -182 -20 -454 -100 -519 -154 -15 -13 -44 -26 -64
-30 -20 -4 -59 -22 -86 -40 -99 -66 -420 -347 -549 -479 -109 -112 -133 -141
-133 -165 0 -22 -21 -55 -81 -128 -45 -55 -118 -147 -162 -206 -44 -59 -82
-107 -83 -105 -1 1 -8 67 -14 147 -6 80 -24 291 -41 470 -61 658 -69 749 -84
960 -19 277 -36 479 -41 507 -5 27 -39 49 -50 32z m2508 -1101 c86 -60 156
-288 182 -593 15 -178 12 -243 -19 -473 -18 -126 -21 -138 -40 -146 -34 -13
-36 19 -10 195 29 203 30 261 10 429 -20 157 -33 209 -90 345 -54 129 -84 172
-122 177 -20 2 -30 11 -38 32 -8 24 -6 31 14 47 28 23 69 18 113 -13z m-170
-68 c35 -27 121 -239 146 -360 45 -212 97 -621 109 -860 5 -93 -12 -449 -22
-458 -15 -15 -20 19 -13 90 18 173 14 424 -10 643 -26 246 -64 497 -91 610
-25 102 -83 242 -120 285 -25 31 -30 33 -45 21 -24 -20 -42 -1 -27 28 15 26
41 27 73 1z m-211 -4560 c21 -12 26 -54 8 -66 -29 -17 21 -200 102 -372 67
-144 139 -261 261 -423 118 -157 152 -192 241 -243 50 -30 62 -61 32 -86 -22
-19 -54 1 -140 85 -140 138 -378 490 -522 773 -66 128 -68 136 -71 216 -4 76
-2 85 19 105 25 23 41 26 70 11z m379 -190 c0 -37 26 -84 80 -143 96 -105 199
-167 470 -281 145 -61 167 -72 159 -80 -7 -7 -383 155 -449 194 -108 63 -233
171 -270 233 -24 39 -27 97 -5 97 8 0 15 -9 15 -20z"/>
<path d="M3710 7863 c-205 -17 -534 -129 -766 -262 -136 -78 -184 -114 -305
-229 -66 -63 -123 -130 -184 -219 -245 -352 -255 -370 -300 -490 -14 -37 -29
-77 -34 -88 -9 -23 -19 -50 -71 -205 -45 -134 -83 -327 -101 -523 -12 -133
-12 -152 19 -470 48 -494 94 -727 204 -1046 71 -206 96 -253 307 -571 94 -142
200 -247 408 -404 152 -113 290 -192 422 -238 67 -23 264 -37 275 -19 4 6 32
11 63 11 79 0 154 25 231 77 37 25 85 53 108 63 82 36 326 247 439 380 121
143 359 495 456 675 41 76 95 226 129 355 11 41 35 111 55 155 53 122 45 191
-21 183 -24 -3 -28 -10 -45 -77 -10 -40 -23 -79 -28 -85 -4 -6 -14 -29 -21
-51 -31 -99 -215 -456 -247 -480 -7 -5 -29 -43 -48 -84 -94 -195 -357 -539
-515 -671 l-46 -39 -105 52 c-142 71 -154 80 -315 241 -115 116 -155 164 -221
266 -98 153 -110 176 -161 316 -97 265 -176 581 -202 809 -78 696 -93 1105
-51 1365 23 139 26 150 86 265 98 188 114 219 120 239 5 17 12 18 93 12 48 -4
120 -14 162 -23 69 -14 293 -99 384 -145 75 -38 192 -145 562 -513 342 -341
378 -379 447 -486 90 -137 99 -146 132 -131 25 12 35 54 16 66 -12 8 -14 571
-2 722 15 185 20 409 9 428 -5 9 -16 16 -24 16 -11 0 -13 6 -9 19 7 24 -25 87
-88 171 -54 72 -266 310 -276 310 -4 0 -31 31 -59 69 -106 139 -244 217 -441
251 -213 36 -310 44 -441 33z m-46 -205 c26 -37 6 -52 -116 -87 -176 -51 -249
-86 -425 -204 -90 -60 -162 -111 -160 -113 2 -2 28 6 58 17 107 41 368 110
559 148 280 56 265 54 281 35 28 -33 0 -47 -147 -70 -170 -26 -280 -53 -447
-110 -165 -57 -378 -151 -397 -175 -21 -26 -101 -50 -123 -37 -14 7 -29 1 -67
-27 -61 -45 -99 -45 -115 -1 -8 25 -6 31 15 48 74 58 232 162 455 299 191 117
283 167 390 211 77 32 154 65 170 72 41 20 52 19 69 -6z m686 -127 c41 -31
105 -85 142 -120 101 -95 292 -301 285 -308 -4 -3 -89 78 -189 180 -188 190
-298 278 -323 257 -17 -14 -72 31 -61 49 14 22 69 1 146 -58z m-1455 -850
c-39 -77 -73 -221 -85 -356 -13 -156 -13 -769 0 -967 20 -292 66 -583 129
-808 27 -97 31 -123 15 -107 -11 10 -62 208 -88 339 -62 307 -77 478 -83 959
-7 491 3 642 50 828 34 132 61 191 79 173 6 -6 1 -27 -17 -61z m16 -547 c-3
-16 -4 -148 -4 -294 1 -223 5 -297 27 -466 69 -536 204 -990 358 -1199 61 -83
60 -81 42 -99 -20 -20 -26 -17 -76 51 -78 107 -176 329 -233 533 -72 256 -108
453 -171 930 -56 432 -57 568 0 590 33 13 62 -11 57 -46z"/>
<path d="M5715 4240 c-17 -19 -17 -27 -1 -182 9 -90 23 -205 31 -257 38 -245
80 -944 72 -1206 -13 -393 -95 -602 -297 -750 -51 -37 -63 -68 -38 -93 21 -21
43 -13 110 37 80 61 146 146 203 265 66 137 79 250 71 601 -7 268 -27 633 -46
836 -9 97 -16 271 -24 608 -2 117 -5 136 -21 147 -26 19 -39 17 -60 -6z"/>
<path d="M5230 3996 c0 -13 5 -48 10 -77 6 -30 15 -101 20 -159 5 -58 16 -170
25 -250 21 -200 41 -481 60 -835 8 -165 22 -414 30 -552 8 -139 15 -278 15
-308 0 -34 4 -55 11 -55 8 0 10 21 6 73 -4 39 -18 299 -32 577 -23 444 -54
888 -85 1205 -28 278 -29 309 -15 325 12 14 12 20 -5 48 -23 38 -40 41 -40 8z"/>
</g>
</svg>
